<svg width="130" height="136" viewBox="0 0 130 136" fill="none" xmlns="http://www.w3.org/2000/svg">
<g clip-path="url(#clip0_7_353)">
<path d="M65.9544 58.0091L56.9631 75.858H66.1061V58.0091H65.9544ZM65.9544 58.0091L56.9631 75.858H66.1061V58.0091H65.9544ZM0 0V136H130V0H0ZM28.205 97.0001C16.3236 97.0001 11.3106 90.3603 11.3106 83.0511V77.152H23.3347V81.061C23.3347 84.2291 24.3694 87.0404 28.4994 87.0404C31.5233 87.0404 32.8434 84.3095 32.8434 81.5072C32.8434 76.8575 29.0078 75.0816 25.6182 73.02C21.6399 70.7353 18.2414 68.5578 15.8062 65.7912C13.3711 63.0246 12.042 59.5441 12.042 54.7248C12.042 44.3189 18.286 39.0089 28.3388 39.0089C39.6226 39.0089 45.376 46.5322 44.7873 56.9381H32.8434C32.7007 53.6896 32.8434 49.2631 28.5707 48.9686C25.8947 48.7455 24.3694 50.218 24.1107 52.6544C23.7361 55.9743 25.4309 57.6699 28.0177 59.4459C32.8791 62.5427 37.0893 64.4614 40.1043 67.2637C43.1193 70.066 44.9033 73.7607 44.9033 80.4719C44.8676 91.0921 38.9715 97.0001 28.205 97.0001ZM82.6973 85.1216H77.8269V95.6703H66.1061V85.1216H47.6684V74.7871L64.9286 41.5166H77.8269V75.858H82.6973V85.1216ZM118.681 95.6703H85.5695V93.823C85.5695 84.6754 91.2515 76.7772 97.1655 70.2891L102.776 64.3901C104.001 63.1702 104.952 61.7039 105.567 60.0884C106.182 58.4729 106.447 56.7451 106.344 55.0194C106.344 52.2082 105.086 49.2631 101.697 49.5576C97.7899 49.7807 97.4153 54.8676 97.4153 57.6699V60.3473H85.6319V57.4468C85.6319 46.5322 91.4567 40.3386 102.58 40.3386C112.535 40.3386 118.582 45.2738 118.582 55.5102C118.636 62.4713 116.397 66.4516 111.678 71.3958L106.888 76.0454C104.89 77.9642 100.252 82.6138 99.5828 85.7106H118.681V95.6703ZM56.9631 75.858H66.1061V58.0091H65.9544L56.9631 75.858Z" fill="#FF658B"/>
</g>
<defs>
<clipPath id="clip0_7_353">
<rect width="130" height="136" fill="white"/>
</clipPath>
</defs>
</svg>
